# xmcd
#
# Track frame offsets:
# 150
# 13142
# 21089
# 32166
# 41969
# 55649
# 64801
# 77198
# 88906
# 98327
# 108649
# 121457
# 133626
# 140875
#
# Disc length: 2035 seconds
#
#
# Revision: 0
# Processed by: cddbd v1.5.1PL0 Copyright (c) Steve Scherf et al.
# Submitted via: FreeRIP 2.942 
#
DISCID=c507f10e
DTITLE=Wade Dial - Live At Electric City Records
DYEAR=2005
DGENRE=Country
TTITLE0=Old Habits
TTITLE1=Hey Good Lookin'
TTITLE2=You Win Again
TTITLE3=Jambalya
TTITLE4=Farewell Party
TTITLE5=Big River
TTITLE6=Wanted Man
TTITLE7=He'll Have To Go
TTITLE8=Crying Time Again
TTITLE9=Country Roads
TTITLE10=Branded Man
TTITLE11=She Thinks I Still Care
TTITLE12=Same Place
TTITLE13=Cold Cold Heart
EXTD=
EXTT0=
EXTT1=
EXTT2=
EXTT3=
EXTT4=
EXTT5=
EXTT6=
EXTT7=
EXTT8=
EXTT9=
EXTT10=
EXTT11=
EXTT12=
EXTT13=
PLAYORDER=
